HIERARCHY
ROOT root
{
	OFFSET 0.000000 0.000000 0.000000
	CHANNELS 6 Xposition Yposition Zposition Zrotation Yrotation Xrotation
	JOINT lhip
	{
		OFFSET 0.058581 -0.082280 -0.017664
		CHANNELS 3 Zrotation Yrotation Xrotation
		JOINT lknee
		{
			OFFSET 0.043451 -0.386469 0.008037
			CHANNELS 3 Zrotation Yrotation Xrotation
			JOINT lankle
			{
				OFFSET -0.014790 -0.426874 -0.037428
				CHANNELS 3 Zrotation Yrotation Xrotation
				JOINT ltoe
				{
					OFFSET 0.041054 -0.060286 0.122042
					CHANNELS 3 Zrotation Yrotation Xrotation
					End Site
					{
						OFFSET 0.000000 0.000000 0.000000
					}
				}
			}
		}
	}
	JOINT rhip
	{
		OFFSET -0.060310 -0.090513 -0.013543
		CHANNELS 3 Zrotation Yrotation Xrotation
		JOINT rknee
		{
			OFFSET -0.043257 -0.383688 -0.004843
			CHANNELS 3 Zrotation Yrotation Xrotation
			JOINT rankle
			{
				OFFSET 0.019056 -0.420046 -0.034562
				CHANNELS 3 Zrotation Yrotation Xrotation
				JOINT rtoe
				{
					OFFSET -0.034840 -0.062106 0.130323
					CHANNELS 3 Zrotation Yrotation Xrotation
					End Site
					{
						OFFSET 0.000000 0.000000 0.000000
					}
				}
			}
		}
	}
	JOINT lowerback
	{
		OFFSET 0.004439 0.124404 -0.038385
		CHANNELS 3 Zrotation Yrotation Xrotation
		JOINT upperback
		{
			OFFSET 0.004488 0.137956 0.026820
			CHANNELS 3 Zrotation Yrotation Xrotation
			JOINT chest
			{
				OFFSET -0.002265 0.056032 0.002855
				CHANNELS 3 Zrotation Yrotation Xrotation
				JOINT lowerneck
				{
					OFFSET -0.013390 0.211636 -0.033468
					CHANNELS 3 Zrotation Yrotation Xrotation
					JOINT upperneck
					{
						OFFSET 0.010113 0.088937 0.050410
						CHANNELS 3 Zrotation Yrotation Xrotation
						End Site
						{
							OFFSET 0.000000 0.000000 0.000000
						}
					}
				}
				JOINT lclavicle
				{
					OFFSET 0.071702 0.114000 -0.018898
					CHANNELS 3 Zrotation Yrotation Xrotation
					JOINT lshoulder
					{
						OFFSET 0.122921 0.045205 -0.019046
						CHANNELS 3 Zrotation Yrotation Xrotation
						JOINT lelbow
						{
							OFFSET 0.255332 -0.015649 -0.022946
							CHANNELS 3 Zrotation Yrotation Xrotation
							JOINT lwrist
							{
								OFFSET 0.265709 0.012698 -0.007375
								CHANNELS 3 Zrotation Yrotation Xrotation
								End Site
								{
									OFFSET 0.000000 0.000000 0.000000
								}
							}
						}
					}
				}
				JOINT rclavicle
				{
					OFFSET -0.082954 0.112472 -0.023707
					CHANNELS 3 Zrotation Yrotation Xrotation
					JOINT rshoulder
					{
						OFFSET -0.113228 0.046853 -0.008472
						CHANNELS 3 Zrotation Yrotation Xrotation
						JOINT relbow
						{
							OFFSET -0.260127 -0.014369 -0.031269
							CHANNELS 3 Zrotation Yrotation Xrotation
							JOINT rwrist
							{
								OFFSET -0.269108 0.006794 -0.006027
								CHANNELS 3 Zrotation Yrotation Xrotation
								End Site
								{
									OFFSET 0.000000 0.000000 0.000000
								}
							}
						}
					}
				}
			}
		}
	}
}
MOTION
Frames: 5
Frame Time: 0.033333
-0.028377 0.145127 0.760694 -170.153985 3.876351 107.623764 26.165077 26.105293 -67.786205 -18.260441 20.012021 75.992071 0.445738 -1.252731 -29.701682 0.000000 -0.000000 0.000000 -22.862958 -6.126078 -53.334221 -2.210890 -20.692125 88.112527 10.422400 -14.420791 -30.905385 0.000000 -0.000000 0.000000 -27.487267 17.259743 41.227576 -2.651626 20.400072 -3.780222 7.802033 6.351846 -0.843001 3.607737 0.478382 -17.784393 0.584443 -18.016906 2.160845 -30.240239 -9.630244 7.986358 -16.755588 -10.429660 13.426654 9.118187 -71.160601 -13.108907 24.219929 -9.565725 -27.043337 33.773577 30.359725 5.924848 4.985419 43.651392 -3.828820 3.545205 42.160373 -22.128388 -13.366951 11.611539 -26.020142 
-0.027479 0.140103 0.762035 -172.471404 3.399881 107.370332 25.959344 26.303531 -66.886147 -17.221273 20.064091 76.194678 0.294590 -0.540242 -29.705843 0.000000 -0.000000 0.000000 -23.033420 -6.257144 -54.401503 -1.397447 -20.158302 87.604731 10.128851 -14.029567 -31.208162 0.000000 -0.000000 0.000000 -28.866883 16.052224 41.602521 -2.700803 20.993574 -4.583518 8.237651 5.722250 -0.849731 3.361124 0.610669 -18.067146 0.190214 -17.432880 2.589443 -30.223840 -8.911026 7.002982 -16.485372 -9.567560 13.263407 7.191143 -70.838323 -11.056221 23.771137 -9.505233 -27.095784 34.413181 30.240250 5.987352 6.454707 43.674156 -1.783700 3.035652 43.124700 -22.164591 -13.186034 11.493391 -26.025973 
-0.025451 0.136607 0.761193 -174.754859 3.059384 107.058061 26.002929 26.772361 -66.046818 -16.290149 19.937497 76.689203 -0.316390 -0.181697 -29.799750 0.000000 -0.000000 0.000000 -23.275564 -6.104504 -55.292762 -0.959815 -19.860848 87.431850 10.047006 -12.986830 -31.939079 0.000000 -0.000000 0.000000 -29.529896 15.506716 41.498866 -2.327712 21.129889 -4.360433 8.441245 5.308285 -1.287844 2.941308 1.218306 -17.524062 0.009269 -17.145270 2.361114 -30.457908 -8.711579 6.932863 -16.220957 -8.725099 12.849514 5.828676 -70.268914 -9.757016 23.352522 -9.518440 -27.380842 35.483021 29.929159 6.688782 6.702760 43.387681 -1.388340 2.394083 44.010352 -21.224861 -12.209517 11.647693 -25.575348 
-0.021583 0.133257 0.759809 -177.273317 3.102654 106.831192 26.681948 28.079069 -64.762507 -15.810322 20.153140 76.767356 -0.487992 0.121459 -29.794881 0.000000 -0.000000 0.000000 -23.176041 -5.332439 -56.375320 -0.056302 -19.648945 86.981462 9.406090 -12.623576 -32.246728 0.000000 -0.000000 0.000000 -29.653132 15.552408 40.651836 -1.778180 21.081266 -3.257205 8.430275 5.151640 -1.689245 2.640110 1.652585 -17.115174 -0.136122 -16.685501 2.016786 -30.803075 -8.977788 7.461908 -15.817252 -8.235320 12.436563 6.657160 -69.586051 -11.048164 22.827499 -9.286610 -26.859775 36.403363 29.742208 7.209012 6.797699 42.844208 -1.277695 1.788393 44.814486 -21.257287 -9.321478 10.873308 -25.515020 
-0.017622 0.131233 0.758549 -179.619054 3.141766 106.420134 27.244293 29.259443 -63.450823 -15.316514 20.057445 77.118116 -0.830130 0.355010 -29.928087 0.000000 -0.000000 0.000000 -23.000848 -4.568332 -57.053832 0.574301 -19.184105 86.764869 8.810689 -11.723016 -32.569783 0.000000 -0.000000 0.000000 -29.538474 15.515862 40.253038 -1.581403 21.019967 -2.239200 8.372214 4.903132 -2.461212 2.161277 2.016696 -16.282121 -0.013430 -15.936211 1.585607 -31.263470 -9.183456 7.811465 -15.367785 -7.448954 11.795127 5.638804 -68.708134 -10.050336 23.076267 -8.995383 -26.569852 36.921104 29.785580 8.294538 7.287776 42.368175 -1.529673 2.337314 45.314007 -20.270583 -11.234537 11.049586 -26.830096 
